# xmcd
#
# Track frame offsets: 
#        150
#        21502
#        45135
#        67825
#        86210
#        106735
#        128972
#        154912
#        175492
#        200902
#        220722
#        240227
#
# Disc length: 3483 seconds
#
# Revision: 3
# Processed by: cddbd v1.5.2PL0 Copyright (c) Steve Scherf et al.
# Submitted via: ExactAudioCopyFreeDBPlugin 1.0
#
DISCID=9f0d990c
DTITLE=中西圭三 - Steps
DYEAR=1993
DGENRE=New Age
TTITLE0=素敵なことは変わらない
TTITLE1=Glory Days
TTITLE2=You And I
TTITLE3=あの空を忘れない
TTITLE4=みあげてごらん
TTITLE5=青い影
TTITLE6=Ticket To Paradise
TTITLE7=手のひら
TTITLE8=夜に火をつけて
TTITLE9=君のいる星
TTITLE10=Shake!
TTITLE11=Precious Love
EXTD=YEAR: 1993
EXTT0=
EXTT1=
EXTT2=
EXTT3=
EXTT4=
EXTT5=
EXTT6=
EXTT7=
EXTT8=
EXTT9=
EXTT10=
EXTT11=
PLAYORDER=
